<svg width="145" height="74" viewBox="0 0 145 74" fill="none" xmlns="http://www.w3.org/2000/svg">
<path d="M133.274 69.0722V66.6083H130.398V64.1444H127.496V61.6805V59.2165H124.593V56.7526V54.2887V51.7974V49.3335V46.8695V44.4056V41.9417H121.691V44.4056H118.788V46.8695H115.913H113.01H110.107H107.205H104.302H101.4V44.4056H98.5244V41.9417H95.6218V39.4777H92.7192V41.9417H89.8166V44.4056V46.8695H86.914V49.3335H84.0388V51.7974H81.1362V54.2887H78.2336H75.3309V56.7526H72.4283H69.5257H66.6505H63.7479H60.8453H57.9427H55.0401H52.1648V54.2887H49.2622H46.3596V51.7974H43.457V49.3335H40.5544V46.8695H37.6792H34.7766V49.3335H31.8739V51.7974H28.9713H26.0687H23.1935H20.2909H17.3883H14.4857V49.3335H11.5831V46.8695H8.68045V44.4056V41.9417H5.80522V39.4777V37.0138V34.5499V32.0586H2.90261V34.5499V37.0138V39.4777H0V41.9417V44.4056V46.8695V49.3335V51.7974V54.2887H2.90261V56.7526V59.2165V61.6805H5.80522V64.1444V66.6083H8.68045V69.0722H11.5831V71.5362H14.4857H17.3883V74.0001H20.2909H23.1935H26.0687H28.9713H31.8739H34.7766H37.6792H40.5544H43.457H46.3596H49.2622H52.1648H55.0401H57.9427H60.8453H63.7479H66.6505H69.5257H72.4283H75.3309H78.2336H81.1362H84.0388H86.914H89.8166H92.7192H95.6218H98.5244H101.4H104.302H107.205H110.107H113.01H115.913H118.788H121.691H124.593H127.496H130.398H133.274V71.5362H136.176V69.0722H133.274Z" fill="#BFDAE6"/>
<path d="M141.981 46.8693V44.4054V41.9415H139.078V39.4776H136.176V37.0136H133.273V34.5497H130.398H127.495H124.593V32.0584V29.5945V27.1306H121.69V24.6666V22.2027V19.7388H118.787V17.2749H115.912V14.8109H113.01V12.347H110.107V9.8557H107.204H104.302H101.399H98.5239H95.6213H92.7187H89.8161H86.9135V12.347H84.0382V9.8557V7.39178H81.1356V4.92785H78.233H75.3304V2.46393H72.4278V0H69.5252H66.65H63.7473H60.8447H57.9421H55.0395V2.46393H52.1643H49.2617V4.92785H46.3591V7.39178H43.4565V9.8557H40.5539V12.347H37.6786V14.8109V17.2749V19.7388H34.776H31.8734H28.9708H26.0682H23.193H20.2904H17.3877V22.2027H14.4851H11.5825V24.6666H8.67991V27.1306H5.80469V29.5945V32.0584V34.5497V37.0136V39.4776V41.9415H8.67991V44.4054V46.8693H11.5825V49.3333H14.4851V51.7972H17.3877H20.2904H23.193H26.0682H28.9708H31.8734V49.3333H34.776V46.8693H37.6786H40.5539V49.3333H43.4565V51.7972H46.3591V54.2885H49.2617H52.1643V56.7524H55.0395H57.9421H60.8447H63.7473H66.65H69.5252H72.4278H75.3304V54.2885H78.233H81.1356V51.7972H84.0382V49.3333H86.9135V46.8693H89.8161V44.4054V41.9415H92.7187V39.4776H95.6213V41.9415H98.5239V44.4054H101.399V46.8693H104.302H107.204H110.107H113.01H115.912H118.787V44.4054H121.69V41.9415H124.593V44.4054V46.8693V49.3333V51.7972V54.2885V56.7524V59.2164H127.495V61.6803V64.1442H130.398V66.6081H133.273V69.0721H136.176V71.536H139.078V69.0721V66.6081H141.981V64.1442H144.883V61.6803V59.2164V56.7524V54.2885V51.7972V49.3333V46.8693H141.981Z" fill="white"/>
</svg>
