<svg width="99" height="736" viewBox="0 0 99 736" fill="none" xmlns="http://www.w3.org/2000/svg">
<path opacity="0.2" d="M2.48099e-06 -2.88495e-06L99 0L99 5.32574L78.1156 5.32574L78.1156 15.2384L99 15.2384L99 31.2465L85.3145 31.2465L85.3145 57.1671L64.43 57.1671L64.43 80.0094L99 80.0094L99 98.3263L78.8278 98.3263L78.8278 123.477L99 123.477L99 140.994L80.2778 140.994L80.2778 162.358L99 162.358L99 187.509L90.3512 187.509L90.3512 222.573L99 222.573L99 243.907L73.7911 243.907L73.7911 264.502L99 264.502L99 280.51L85.3145 280.51L85.3145 310.217L68.7544 310.217L68.7544 338.416L91.8011 338.416L91.8011 357.472L79.5401 357.472L79.5401 374.249L93.9633 374.249L93.9633 397.892L76.6656 397.892L76.6656 432.956L99 432.956L99 461.154L88.1889 461.154L88.1889 484.797L99 484.797L99 506.131L88.9012 506.131L88.9012 538.147L70.9166 538.147L70.9166 558.711L99 558.711L99 577.028L83.8645 577.028L83.8645 602.949L99 602.949L99 615.878L89.6389 615.878L89.6389 655.529L66.5922 655.529L66.5922 673.815L99 673.815L99 701.275L86.0267 701.275L86.0267 736L-4.57764e-05 736L-2.09574e-05 357.472L2.48099e-06 -2.88495e-06Z" fill="#F6BD83"/>
</svg>
