<svg width="124" height="140" viewBox="0 0 124 140" fill="none" xmlns="http://www.w3.org/2000/svg">
<path fill-rule="evenodd" clip-rule="evenodd" d="M68.9536 15.4873L60.105 11.7996L39.8226 60.4671L48.6705 64.1544L46.8265 68.5789L51.2505 70.4226L51.2505 70.4227L55.6748 72.2665L74.1133 28.0233L69.6893 26.1796L71.5332 21.7553L67.1097 19.9118L68.9536 15.4873ZM53.8354 14.3802L58.2598 16.224L41.6651 56.0429L37.2408 54.199L37.241 54.1984L32.8172 52.3548L34.6611 47.9303L30.2375 46.0867L35.769 32.8138L40.1926 34.6573L45.7241 21.3846L50.148 23.2282L53.8354 14.3802ZM72.271 32.448L76.6953 34.2919L74.8514 38.7163L79.2754 40.56L77.4315 44.9843L81.8555 46.828L81.8554 46.8281L86.2793 48.6718L84.4354 53.0961L88.8594 54.9398L72.2647 94.7587L67.8408 92.915L60.4654 110.612L56.0411 108.768L56.0413 108.768L51.6183 106.925L58.9936 89.2273L63.4167 91.0707L65.2604 86.6467L60.8365 84.803L62.6804 80.3787L58.2564 78.535L58.2565 78.5349L53.8325 76.6912L72.271 32.448ZM50.8804 96.2322L55.3047 98.0761L53.4608 102.5L49.0365 100.657L50.8804 96.2322ZM87.0171 59.3645L91.4414 61.2084L87.7537 70.0571L92.1777 71.9008L90.3339 76.3251L94.7578 78.1688L91.0701 87.0175L86.6462 85.1738L84.8023 89.598L80.3783 87.7543L78.5345 92.1786L74.1101 90.3348L87.0171 59.3645ZM73.002 105.452L68.5778 103.608L70.4219 99.183L65.9975 97.3392L58.6222 115.036L63.0463 116.88L61.2022 121.305L65.6262 123.149L65.6262 123.149L70.0505 124.993L75.582 111.72L71.1581 109.876L73.002 105.452ZM78.164 117.988L73.7397 116.144L68.2082 129.417L72.6321 131.261L77.0561 133.104L77.056 133.104L81.4804 134.948L83.3242 130.524L78.9003 128.68L80.7441 124.256L76.3202 122.412L78.164 117.988Z" fill="#FCE740"/>
<path fill-rule="evenodd" clip-rule="evenodd" d="M85.1717 63.7887L89.5961 65.6325L78.533 92.1784L74.1092 90.3348L72.2654 94.759L67.8415 92.9154L60.4662 110.613L56.0419 108.769L65.2611 86.647L60.8374 84.8033L68.2128 67.1061L72.6365 68.9497L74.4803 64.5255L78.9046 66.3694L78.9046 66.3694L83.3279 68.2129L85.1717 63.7887ZM63.787 65.2623L68.2113 67.1062L62.6798 80.3791L58.2554 78.5353L58.2557 78.5347L53.8317 76.691L55.6756 72.2666L51.2517 70.423L53.0956 65.9987L57.5199 67.8425L57.5198 67.8426L61.9433 69.6861L63.787 65.2623ZM53.4606 102.5L51.6167 106.925L56.041 108.769L63.4164 91.0715L58.992 89.2277L55.3044 98.0761L50.8807 96.2325L49.0369 100.657L53.4606 102.5ZM73.0023 105.451L68.5784 103.608L70.4222 99.1833L65.9979 97.3395L58.6225 115.037L63.0465 116.88L61.2026 121.305L65.6267 123.149L65.6265 123.149L70.0505 124.993L68.2066 129.417L72.6309 131.261L78.1625 117.988L73.7385 116.144L75.5824 111.72L71.1583 109.876L73.0023 105.451ZM76.3202 122.412L80.7445 124.256L78.9006 128.68L83.3246 130.524L81.4807 134.948L77.0564 133.105L77.0564 133.105L72.6325 131.261L76.3202 122.412ZM87.7538 70.0572L92.1781 71.9011L90.3342 76.3255L94.7582 78.1692L91.0705 87.0178L86.6465 85.1741L84.8027 89.5984L80.3784 87.7545L87.7538 70.0572Z" fill="#FFBE00"/>
<path fill-rule="evenodd" clip-rule="evenodd" d="M68.58 103.607L73.0043 105.451L71.1604 109.876L75.5844 111.719L73.7405 116.144L78.1645 117.987L76.3206 122.412L80.7445 124.255L77.0568 133.104L72.6325 131.26L72.6326 131.26L68.2086 129.416L70.0525 124.992L65.6285 123.148L65.6285 123.148L61.2046 121.305L68.58 103.607ZM83.3266 130.524L78.9023 128.68L77.0584 133.104L81.4827 134.948L83.3266 130.524ZM62.3105 106.188L66.7348 108.032L63.0471 116.88L58.6228 115.037L62.3105 106.188ZM57.8871 104.344L53.4628 102.5L51.619 106.924L56.0433 108.768L57.8871 104.344Z" fill="#F59500"/>
<path fill-rule="evenodd" clip-rule="evenodd" d="M61.9487 7.37565L70.7973 11.0633L68.9535 15.4877L60.1054 11.8002L58.2616 16.2244L53.8372 14.3805L55.6811 9.95622L60.1049 11.7998L61.9487 7.37565ZM53.8359 14.3806L49.4116 12.5368L45.7241 21.3848L41.3002 19.5412L35.7688 32.8139L31.3452 30.9704L25.8136 44.2433L30.2377 46.0871L28.3939 50.5114L32.8182 52.3552L34.6621 47.9309L30.2379 46.0872L35.7694 32.8144L40.193 34.658L45.7243 21.3856L50.1482 23.2293L53.8359 14.3806ZM41.6664 56.0433L32.8178 52.3556L30.974 56.7799L39.8226 60.4676L41.6664 56.0433ZM39.8217 60.4674L48.6704 64.1551L46.8265 68.5795L37.9779 64.8918L39.8217 60.4674ZM55.6762 72.267L46.8276 68.5793L44.9837 73.0036L53.8324 76.6913L55.6762 72.267ZM53.8315 76.6916L62.6801 80.3793L60.8363 84.8036L51.9876 81.1159L53.8315 76.6916ZM65.2617 86.6472L60.8373 84.8034L58.9935 89.2277L63.4178 91.0715L65.2617 86.6472ZM54.5678 87.3839L58.9921 89.2278L55.3044 98.0764L50.8807 96.2328L49.0369 100.657L53.4609 102.501L51.617 106.925L47.1927 105.081L42.7688 103.237L46.4565 94.3888L50.8802 96.2324L54.5678 87.3839ZM60.4672 110.613L51.6186 106.925L49.7747 111.349L58.6234 115.037L60.4672 110.613ZM58.6225 115.037L63.0468 116.881L61.203 121.305L56.7787 119.462L58.6225 115.037ZM73.3769 17.3313L68.9526 15.4875L67.1087 19.9118L71.5331 21.7556L73.3769 17.3313ZM71.5346 21.756L75.9589 23.5999L74.1151 28.0242L69.6908 26.1803L71.5346 21.756ZM78.539 29.8679L74.1147 28.0241L72.2708 32.4484L76.6952 34.2923L78.539 29.8679ZM76.6948 34.2922L81.1191 36.136L79.2752 40.5603L74.8509 38.7165L76.6948 34.2922ZM88.1235 44.2479L79.2748 40.5602L77.431 44.9845L86.2796 48.6722L88.1235 44.2479ZM86.2807 48.6725L90.705 50.5164L88.8612 54.9407L84.4369 53.0968L86.2807 48.6725ZM93.2851 56.7844L88.8608 54.9406L87.0169 59.3649L91.4413 61.2088L93.2851 56.7844ZM91.4409 61.2087L95.8652 63.0525L92.1775 71.9011L87.7532 70.0573L91.4409 61.2087ZM96.6015 73.7449L92.1772 71.901L90.3333 76.3254L94.7577 78.1692L96.6015 73.7449ZM94.7573 78.1691L99.1816 80.013L95.4939 88.8616L91.0702 87.018L89.2264 91.4421L84.8026 89.5985L82.9588 94.0227L78.5351 92.1791L76.6913 96.6033L72.2669 94.7594L74.1108 90.3351L78.5346 92.1787L80.3784 87.7546L84.8021 89.5982L86.6459 85.174L91.0696 87.0176L94.7573 78.1691ZM67.8413 92.9157L72.2656 94.7595L70.4217 99.1838L65.9974 97.34L67.8413 92.9157ZM74.8457 101.028L70.4213 99.1838L68.5775 103.608L73.0018 105.452L74.8457 101.028ZM73.0034 105.452L77.4277 107.296L75.5838 111.72L71.1595 109.876L73.0034 105.452ZM80.0078 113.564L75.5834 111.72L73.7396 116.144L78.1639 117.988L80.0078 113.564ZM78.1635 117.988L82.5878 119.832L80.744 124.256L76.3197 122.412L78.1635 117.988ZM85.1679 126.1L80.7436 124.257L78.8997 128.681L83.3241 130.525L85.1679 126.1ZM61.2026 121.305L70.0512 124.993L68.2074 129.417L59.3587 125.73L61.2026 121.305ZM81.4814 134.949L68.2084 129.417L66.3646 133.841L79.6375 139.373L81.4814 134.949Z" fill="black"/>
</svg>
