<svg width="99" height="736" viewBox="0 0 99 736" fill="none" xmlns="http://www.w3.org/2000/svg">
<path opacity="0.2" d="M99 -2.88495e-06L-4.82574e-05 0L-4.79082e-05 5.32574L20.8844 5.32574L20.8844 15.2385L-4.72582e-05 15.2385L-4.62086e-05 31.2465L13.6855 31.2465L13.6855 57.1671L34.57 57.1671L34.57 80.0095L-4.30114e-05 80.0095L-4.18104e-05 98.3264L20.1722 98.3264L20.1722 123.477L-4.01613e-05 123.477L-3.90128e-05 140.994L18.7222 140.994L18.7222 162.358L-3.7612e-05 162.358L-3.59629e-05 187.51L8.64883 187.51L8.64883 222.573L-3.36639e-05 222.573L-3.22651e-05 243.907L25.2089 243.907L25.2089 264.502L-3.09147e-05 264.502L-2.98651e-05 280.51L13.6855 280.51L13.6855 310.217L30.2456 310.217L30.2456 338.416L7.19888 338.416L7.19888 357.472L19.4599 357.472L19.4599 374.249L5.03667 374.249L5.03667 397.892L22.3344 397.892L22.3344 432.956L-1.98697e-05 432.956L-1.80208e-05 461.154L10.8111 461.154L10.8111 484.797L-1.64706e-05 484.797L-1.50718e-05 506.131L10.0988 506.131L10.0988 538.147L28.0834 538.147L28.0834 558.711L-1.16243e-05 558.711L-1.04233e-05 577.028L15.1355 577.028L15.1355 602.949L-8.72379e-06 602.949L-7.87603e-06 615.878L9.36112 615.878L9.36112 655.529L32.4078 655.529L32.4078 673.815L-4.07729e-06 673.815L-2.27682e-06 701.275L12.9733 701.275L12.9733 736L99 736L99 357.472L99 -2.88495e-06Z" fill="#F6BD83"/>
</svg>
