<svg width="1647" height="105" viewBox="0 0 1647 105" fill="none" xmlns="http://www.w3.org/2000/svg">
<path d="M1647 105V0L1635.08 0V22.1502H1612.9V0L1577.08 0V14.515L1519.07 14.515V36.6652L1467.96 36.6652V0L1426.97 0V21.3948L1370.69 21.3948V0L1331.49 0V19.8569L1283.68 19.8569V0L1227.4 0V9.17304L1148.93 9.17304V0L1101.19 0V26.7367L1055.11 26.7367V0L1019.28 0V14.515L952.805 14.515V32.0786L889.702 32.0786V7.6352L847.06 7.6352V20.6393L809.516 20.6393V5.34194L756.609 5.34194V23.688L678.144 23.688V0L615.042 0V11.4663L562.135 11.4663V0L514.395 0V10.7109L442.75 10.7109V29.7854L396.732 29.7854V0L355.743 0V16.0528L297.739 16.0528V0L268.805 0V9.92846L180.076 9.92846V34.3719L139.156 34.3719V0L77.7069 0V13.7596L0 13.7596L0 105L847.06 105L1647 105Z" fill="white"/>
</svg>
