<svg width="323" height="339" viewBox="0 0 323 339" fill="none" xmlns="http://www.w3.org/2000/svg">
<path d="M23.0918 47.6281V0H25.262V8.00963H29.3012V0H35.8242V5.2487H46.3865V13.2583H55.6944V0H63.1582V7.72671H73.4068V0H80.5445V7.18038H89.2502V0H99.4989V3.30727H113.787V0H122.48V9.66814H130.872V0H137.395V5.2487H149.5V11.5998H160.991V2.76093H168.756V7.45354H175.592V1.93168H185.226V8.55597H199.514V0H211.005V4.13652H220.639V0H229.332V3.86336H242.378V10.7706H250.758V0H258.221V5.79503H268.784V0H274.052V3.59019H290.209V12.4291H297.661V0H308.85V4.96578H323V47.6281H23.0918Z" fill="#BD6931"/>
<path d="M46.1613 339L0.0214983 339L0.0214982 336.628L7.78083 336.628L7.78083 332.213L0.021498 332.213L0.0214977 325.084L5.10618 325.084L5.10618 313.539L12.8655 313.539L12.8655 303.366L0.0214967 303.366L0.0214964 295.208L7.50675 295.208L7.50675 284.007L0.0214959 284.007L0.0214956 276.205L6.97749 276.205L6.97749 266.69L0.0214952 266.69L0.0214947 255.489L3.22541 255.489L3.22541 239.872L0.0214941 239.872L0.0214937 230.371L9.38751 230.371L9.38751 221.198L0.0214933 221.198L0.021493 214.069L5.10617 214.069L5.10617 200.838L11.2588 200.838L11.2588 188.279L2.69615 188.279L2.69615 179.792L7.24211 179.792L7.24211 172.32L1.8928 172.32L1.8928 161.79L8.31009 161.79L8.31009 146.174L0.0214901 146.174L0.0214896 133.615L4.02875 133.615L4.02875 123.085L0.0214891 123.085L0.0214887 113.584L3.76412 113.584L3.76412 99.3247L10.4555 99.3247L10.4555 90.166L0.0214877 90.166L0.0214874 82.0082L5.63543 82.0082L5.63543 70.4638L0.0214869 70.4638L0.0214866 64.7054L3.49948 64.7054L3.49948 47.0461L12.0622 47.0461L12.0622 38.902L0.0214855 38.902L0.021485 26.6721L4.83208 26.6721L4.83208 11.2065L46.1612 11.2065L46.1613 339Z" fill="#BD6931"/>
</svg>
