<svg width="323" height="356" viewBox="0 0 323 356" fill="none" xmlns="http://www.w3.org/2000/svg">
<path d="M299.908 50.0166V0H297.738V8.41129H293.699V0H287.176V5.51191H276.614V13.9232H267.306V0H259.842V8.11419H249.593V0H242.455V7.54046H233.75V0H223.501V3.47312H209.213V0H200.52V10.153H192.128V0H185.605V5.51191H173.5V12.1815H162.009V2.89939H154.244V7.82732H147.408V2.02855H137.774V8.98503H123.486V0H111.995V4.34396H102.361V0H93.668V4.05709H80.622V11.3107H72.2424V0H64.7786V6.08564H54.2163V0H48.9477V3.77023H32.7907V13.0524H25.3394V0H14.1499V5.2148H0V50.0166H299.908Z" fill="#BD6931"/>
<path d="M276.839 356L322.979 356L322.979 353.509L315.219 353.509L315.219 348.873L322.979 348.873L322.979 341.386L317.894 341.386L317.894 329.263L310.134 329.263L310.134 318.579L322.979 318.579L322.979 310.012L315.493 310.012L315.493 298.249L322.979 298.249L322.979 290.056L316.023 290.056L316.023 280.064L322.979 280.064L322.979 268.301L319.775 268.301L319.775 251.901L322.979 251.901L322.979 241.923L313.612 241.923L313.612 232.291L322.979 232.291L322.979 224.804L317.894 224.804L317.894 210.91L311.741 210.91L311.741 197.721L320.304 197.721L320.304 188.808L315.758 188.808L315.758 180.961L321.107 180.961L321.107 169.904L314.69 169.904L314.69 153.504L322.979 153.504L322.979 140.315L318.971 140.315L318.971 129.258L322.979 129.258L322.979 119.28L319.236 119.28L319.236 104.306L312.545 104.306L312.545 94.6876L322.979 94.6876L322.979 86.1207L317.365 86.1207L317.365 73.9974L322.979 73.9974L322.979 67.9502L319.501 67.9502L319.501 49.4054L310.938 49.4054L310.938 40.8529L322.979 40.8529L322.979 28.0097L318.168 28.0097L318.168 11.7686L276.839 11.7686L276.839 356Z" fill="#BD6931"/>
</svg>
