<svg width="30" height="1706" viewBox="0 0 30 1706" fill="none" xmlns="http://www.w3.org/2000/svg">
<path d="M0 0H10V11.2959H0V0Z" fill="#C4C4C4"/>
<path d="M10 0H20V11.2959H10V0Z" fill="#1C120E"/>
<path d="M20 0H30V11.2959H20V0Z" fill="#747474"/>
<path d="M0 11.2959H10V22.5918H0V11.2959Z" fill="#C4C4C4"/>
<path d="M10 11.2959H20V22.5918H10V11.2959Z" fill="#1C120E"/>
<path d="M20 11.2959H30V22.5918H20V11.2959Z" fill="#747474"/>
<path d="M0 22.5918H10V33.8878H0V22.5918Z" fill="#C4C4C4"/>
<path d="M10 22.5918H20V33.8878H10V22.5918Z" fill="#1C120E"/>
<path d="M20 22.5918H30V33.8878H20V22.5918Z" fill="#747474"/>
<path d="M30 33.8878H20V45.1837H30V33.8878Z" fill="#C4C4C4"/>
<path d="M20 33.8878H10V45.1837H20V33.8878Z" fill="#1C120E"/>
<path d="M10 33.8878H0V45.1837H10V33.8878Z" fill="#747474"/>
<path d="M30 45.1837H20V56.4796H30V45.1837Z" fill="#C4C4C4"/>
<path d="M20 45.1837H10V56.4796H20V45.1837Z" fill="#1C120E"/>
<path d="M10 45.1837H0V56.4796H10V45.1837Z" fill="#747474"/>
<path d="M0 56.4796H10V67.7755H0V56.4796Z" fill="#C4C4C4"/>
<path d="M10 56.4796H20V67.7755H10V56.4796Z" fill="#1C120E"/>
<path d="M20 56.4796H30V67.7755H20V56.4796Z" fill="#747474"/>
<path d="M0 67.7755H10V79.0714H0V67.7755Z" fill="#1C120E"/>
<path d="M10 67.7755H20V79.0714H10V67.7755Z" fill="#C4C4C4"/>
<path d="M0 79.0714H10V90.3673H0V79.0714Z" fill="#1C120E"/>
<path d="M10 79.0714H20V90.3673H10V79.0714Z" fill="#C4C4C4"/>
<path d="M0 90.3673H10V101.663H0V90.3673Z" fill="#1C120E"/>
<path d="M10 90.3673H20V101.663H10V90.3673Z" fill="#C4C4C4"/>
<path d="M0 101.663H10V112.959H0V101.663Z" fill="#929292"/>
<path d="M10 101.663H20V112.959H10V101.663Z" fill="#1C120E"/>
<path d="M20 101.663H30V112.959H20V101.663Z" fill="#424242"/>
<path d="M0 112.959H10V124.255H0V112.959Z" fill="#1C120E"/>
<path d="M10 112.959H20V124.255H10V112.959Z" fill="#C4C4C4"/>
<path d="M0 124.255H10V135.551H0V124.255Z" fill="#1C120E"/>
<path d="M10 124.255H20V135.551H10V124.255Z" fill="#C4C4C4"/>
<path d="M0 135.551H10V146.847H0V135.551Z" fill="#929292"/>
<path d="M10 135.551H20V146.847H10V135.551Z" fill="#1C120E"/>
<path d="M20 135.551H30V146.847H20V135.551Z" fill="#424242"/>
<path d="M0 146.847H10V158.143H0V146.847Z" fill="#1C120E"/>
<path d="M10 146.847H20V158.143H10V146.847Z" fill="#C4C4C4"/>
<path d="M0 158.143H10V169.439H0V158.143Z" fill="#929292"/>
<path d="M10 158.143H20V169.439H10V158.143Z" fill="#1C120E"/>
<path d="M20 158.143H30V169.439H20V158.143Z" fill="#424242"/>
<path d="M0 169.439H10V180.735H0V169.439Z" fill="#929292"/>
<path d="M10 169.439H20V180.735H10V169.439Z" fill="#1C120E"/>
<path d="M20 169.439H30V180.735H20V169.439Z" fill="#424242"/>
<path d="M0 180.735H10V192.031H0V180.735Z" fill="#929292"/>
<path d="M10 180.735H20V192.031H10V180.735Z" fill="#1C120E"/>
<path d="M20 180.735H30V192.031H20V180.735Z" fill="#424242"/>
<path d="M30 192.031H20V203.327H30V192.031Z" fill="#929292"/>
<path d="M20 192.031H10V203.327H20V192.031Z" fill="#1C120E"/>
<path d="M10 192.031H0V203.327H10V192.031Z" fill="#424242"/>
<path d="M0 203.327H10V214.622H0V203.327Z" fill="#C4C4C4"/>
<path d="M10 203.327H20V214.622H10V203.327Z" fill="#1C120E"/>
<path d="M0 214.622H10V225.918H0V214.622Z" fill="#929292"/>
<path d="M10 214.622H20V225.918H10V214.622Z" fill="#1C120E"/>
<path d="M20 214.622H30V225.918H20V214.622Z" fill="#424242"/>
<path d="M0 225.918H10V237.214H0V225.918Z" fill="#C4C4C4"/>
<path d="M10 225.918H20V237.214H10V225.918Z" fill="#1C120E"/>
<path d="M0 237.214H10V248.51H0V237.214Z" fill="#929292"/>
<path d="M10 237.214H20V248.51H10V237.214Z" fill="#1C120E"/>
<path d="M20 237.214H30V248.51H20V237.214Z" fill="#424242"/>
<path d="M0 248.51H10V259.806H0V248.51Z" fill="#C4C4C4"/>
<path d="M10 248.51H20V259.806H10V248.51Z" fill="#1C120E"/>
<path d="M0 259.806H10V271.102H0V259.806Z" fill="#C4C4C4"/>
<path d="M10 259.806H20V271.102H10V259.806Z" fill="#1C120E"/>
<path d="M0 271.102H10V282.398H0V271.102Z" fill="#A6A6A6"/>
<path d="M10 271.102H20V282.398H10V271.102Z" fill="#5C5C5C"/>
<path d="M20 271.102H30V282.398H20V271.102Z" fill="#C4C4C4"/>
<path d="M0 282.398H10V293.694H0V282.398Z" fill="#C4C4C4"/>
<path d="M10 282.398H20V293.694H10V282.398Z" fill="#1C120E"/>
<path d="M0 293.694H10V304.99H0V293.694Z" fill="#C4C4C4"/>
<path d="M10 293.694H20V304.99H10V293.694Z" fill="#1C120E"/>
<path d="M0 304.99H10V316.286H0V304.99Z" fill="#A6A6A6"/>
<path d="M10 304.99H20V316.286H10V304.99Z" fill="#5C5C5C"/>
<path d="M20 304.99H30V316.286H20V304.99Z" fill="#C4C4C4"/>
<path d="M0 316.286H10V327.582H0V316.286Z" fill="#A6A6A6"/>
<path d="M10 316.286H20V327.582H10V316.286Z" fill="#5C5C5C"/>
<path d="M20 316.286H30V327.582H20V316.286Z" fill="#C4C4C4"/>
<path d="M0 327.582H10V338.878H0V327.582Z" fill="#ECECEC"/>
<path d="M10 327.582H20V338.878H10V327.582Z" fill="#1C120E"/>
<path d="M20 327.582H30V338.878H20V327.582Z" fill="#747474"/>
<path d="M0 338.878H10V350.173H0V338.878Z" fill="#A6A6A6"/>
<path d="M10 338.878H20V350.173H10V338.878Z" fill="#5C5C5C"/>
<path d="M20 338.878H30V350.173H20V338.878Z" fill="#C4C4C4"/>
<path d="M30 350.173H20V361.469H30V350.173Z" fill="#A6A6A6"/>
<path d="M20 350.173H10V361.469H20V350.173Z" fill="#5C5C5C"/>
<path d="M10 350.173H0V361.469H10V350.173Z" fill="#C4C4C4"/>
<path d="M0 361.469H10V372.765H0V361.469Z" fill="#A6A6A6"/>
<path d="M10 361.469H20V372.765H10V361.469Z" fill="#5C5C5C"/>
<path d="M20 361.469H30V372.765H20V361.469Z" fill="#C4C4C4"/>
<path d="M0 372.765H10V384.061H0V372.765Z" fill="#ECECEC"/>
<path d="M10 372.765H20V384.061H10V372.765Z" fill="#1C120E"/>
<path d="M20 372.765H30V384.061H20V372.765Z" fill="#747474"/>
<path d="M0 384.061H10V395.357H0V384.061Z" fill="#ECECEC"/>
<path d="M10 384.061H20V395.357H10V384.061Z" fill="#1C120E"/>
<path d="M20 384.061H30V395.357H20V384.061Z" fill="#747474"/>
<path d="M0 395.357H10V406.653H0V395.357Z" fill="#C4C4C4"/>
<path d="M10 395.357H20V406.653H10V395.357Z" fill="#1C120E"/>
<path d="M20 395.357H30V406.653H20V395.357Z" fill="#747474"/>
<path d="M0 406.653H10V417.949H0V406.653Z" fill="#ECECEC"/>
<path d="M10 406.653H20V417.949H10V406.653Z" fill="#1C120E"/>
<path d="M20 406.653H30V417.949H20V406.653Z" fill="#747474"/>
<path d="M0 417.949H10V429.245H0V417.949Z" fill="#ECECEC"/>
<path d="M10 417.949H20V429.245H10V417.949Z" fill="#1C120E"/>
<path d="M20 417.949H30V429.245H20V417.949Z" fill="#747474"/>
<path d="M30 429.245H20V440.541H30V429.245Z" fill="#C4C4C4"/>
<path d="M20 429.245H10V440.541H20V429.245Z" fill="#1C120E"/>
<path d="M10 429.245H0V440.541H10V429.245Z" fill="#747474"/>
<path d="M0 440.541H10V451.837H0V440.541Z" fill="#C4C4C4"/>
<path d="M10 440.541H20V451.837H10V440.541Z" fill="#1C120E"/>
<path d="M20 440.541H30V451.837H20V440.541Z" fill="#747474"/>
<path d="M0 451.837H10V463.133H0V451.837Z" fill="#C4C4C4"/>
<path d="M10 451.837H20V463.133H10V451.837Z" fill="#1C120E"/>
<path d="M20 451.837H30V463.133H20V451.837Z" fill="#747474"/>
<path d="M0 463.133H10V474.429H0V463.133Z" fill="#C4C4C4"/>
<path d="M10 463.133H20V474.429H10V463.133Z" fill="#1C120E"/>
<path d="M20 463.133H30V474.429H20V463.133Z" fill="#747474"/>
<path d="M30 474.429H20V485.724H30V474.429Z" fill="#C4C4C4"/>
<path d="M20 474.429H10V485.724H20V474.429Z" fill="#1C120E"/>
<path d="M10 474.429H0V485.724H10V474.429Z" fill="#747474"/>
<path d="M0 485.724H10V497.02H0V485.724Z" fill="#C4C4C4"/>
<path d="M10 485.724H20V497.02H10V485.724Z" fill="#1C120E"/>
<path d="M20 485.724H30V497.02H20V485.724Z" fill="#747474"/>
<path d="M0 497.02H10V508.316H0V497.02Z" fill="#C4C4C4"/>
<path d="M10 497.02H20V508.316H10V497.02Z" fill="#1C120E"/>
<path d="M20 497.02H30V508.316H20V497.02Z" fill="#747474"/>
<path d="M0 508.316H10V519.612H0V508.316Z" fill="#C4C4C4"/>
<path d="M10 508.316H20V519.612H10V508.316Z" fill="#1C120E"/>
<path d="M20 508.316H30V519.612H20V508.316Z" fill="#747474"/>
<path d="M20 519.612H10V530.908H20V519.612Z" fill="#1C120E"/>
<path d="M10 519.612H0V530.908H10V519.612Z" fill="#C4C4C4"/>
<path d="M0 530.908H10V542.204H0V530.908Z" fill="#1C120E"/>
<path d="M10 530.908H20V542.204H10V530.908Z" fill="#C4C4C4"/>
<path d="M0 542.204H10V553.5H0V542.204Z" fill="#1C120E"/>
<path d="M10 542.204H20V553.5H10V542.204Z" fill="#C4C4C4"/>
<path d="M20 553.5H10V564.796H20V553.5Z" fill="#1C120E"/>
<path d="M10 553.5H0V564.796H10V553.5Z" fill="#C4C4C4"/>
<path d="M0 564.796H10V576.092H0V564.796Z" fill="#1C120E"/>
<path d="M10 564.796H20V576.092H10V564.796Z" fill="#C4C4C4"/>
<path d="M0 576.092H10V587.388H0V576.092Z" fill="#1C120E"/>
<path d="M10 576.092H20V587.388H10V576.092Z" fill="#C4C4C4"/>
<path d="M0 587.388H10V598.684H0V587.388Z" fill="#ECECEC"/>
<path d="M10 587.388H20V598.684H10V587.388Z" fill="#1C120E"/>
<path d="M20 587.388H30V598.684H20V587.388Z" fill="#747474"/>
<path d="M0 598.684H10V609.98H0V598.684Z" fill="#C4C4C4"/>
<path d="M10 598.684H20V609.98H10V598.684Z" fill="#1C120E"/>
<path d="M20 598.684H30V609.98H20V598.684Z" fill="#747474"/>
<path d="M0 609.98H10V621.276H0V609.98Z" fill="#1C120E"/>
<path d="M10 609.98H20V621.276H10V609.98Z" fill="#C4C4C4"/>
<path d="M20 621.276H10V632.571H20V621.276Z" fill="#1C120E"/>
<path d="M10 621.276H0V632.571H10V621.276Z" fill="#C4C4C4"/>
<path d="M0 632.571H10V643.867H0V632.571Z" fill="#1C120E"/>
<path d="M10 632.571H20V643.867H10V632.571Z" fill="#C4C4C4"/>
<path d="M0 643.867H10V655.163H0V643.867Z" fill="#1C120E"/>
<path d="M10 643.867H20V655.163H10V643.867Z" fill="#C4C4C4"/>
<path d="M0 655.163H10V666.459H0V655.163Z" fill="#929292"/>
<path d="M10 655.163H20V666.459H10V655.163Z" fill="#1C120E"/>
<path d="M20 655.163H30V666.459H20V655.163Z" fill="#424242"/>
<path d="M30 666.459H20V677.755H30V666.459Z" fill="#929292"/>
<path d="M20 666.459H10V677.755H20V666.459Z" fill="#1C120E"/>
<path d="M10 666.459H0V677.755H10V666.459Z" fill="#424242"/>
<path d="M0 677.755H10V689.051H0V677.755Z" fill="#929292"/>
<path d="M10 677.755H20V689.051H10V677.755Z" fill="#1C120E"/>
<path d="M20 677.755H30V689.051H20V677.755Z" fill="#424242"/>
<path d="M30 689.051H20V700.347H30V689.051Z" fill="#929292"/>
<path d="M20 689.051H10V700.347H20V689.051Z" fill="#1C120E"/>
<path d="M10 689.051H0V700.347H10V689.051Z" fill="#424242"/>
<path d="M0 700.347H10V711.643H0V700.347Z" fill="#929292"/>
<path d="M10 700.347H20V711.643H10V700.347Z" fill="#1C120E"/>
<path d="M20 700.347H30V711.643H20V700.347Z" fill="#424242"/>
<path d="M0 711.643H10V722.939H0V711.643Z" fill="#929292"/>
<path d="M10 711.643H20V722.939H10V711.643Z" fill="#1C120E"/>
<path d="M20 711.643H30V722.939H20V711.643Z" fill="#424242"/>
<path d="M0 722.939H10V734.235H0V722.939Z" fill="#C4C4C4"/>
<path d="M10 722.939H20V734.235H10V722.939Z" fill="#1C120E"/>
<path d="M0 734.235H10V745.531H0V734.235Z" fill="#C4C4C4"/>
<path d="M10 734.235H20V745.531H10V734.235Z" fill="#1C120E"/>
<path d="M30 745.531H20V756.827H30V745.531Z" fill="#929292"/>
<path d="M20 745.531H10V756.827H20V745.531Z" fill="#1C120E"/>
<path d="M10 745.531H0V756.827H10V745.531Z" fill="#424242"/>
<path d="M0 756.827H10V768.122H0V756.827Z" fill="#C4C4C4"/>
<path d="M10 756.827H20V768.122H10V756.827Z" fill="#1C120E"/>
<path d="M30 768.122H20V779.418H30V768.122Z" fill="#929292"/>
<path d="M20 768.122H10V779.418H20V768.122Z" fill="#1C120E"/>
<path d="M10 768.122H0V779.418H10V768.122Z" fill="#424242"/>
<path d="M0 779.418H10V790.714H0V779.418Z" fill="#C4C4C4"/>
<path d="M10 779.418H20V790.714H10V779.418Z" fill="#1C120E"/>
<path d="M30 790.714H20V802.01H30V790.714Z" fill="#929292"/>
<path d="M20 790.714H10V802.01H20V790.714Z" fill="#1C120E"/>
<path d="M10 790.714H0V802.01H10V790.714Z" fill="#424242"/>
<path d="M0 802.01H10V813.306H0V802.01Z" fill="#C4C4C4"/>
<path d="M10 802.01H20V813.306H10V802.01Z" fill="#1C120E"/>
<path d="M0 813.306H10V824.602H0V813.306Z" fill="#C4C4C4"/>
<path d="M10 813.306H20V824.602H10V813.306Z" fill="#1C120E"/>
<path d="M0 824.602H10V835.898H0V824.602Z" fill="#929292"/>
<path d="M10 824.602H20V835.898H10V824.602Z" fill="#1C120E"/>
<path d="M20 824.602H30V835.898H20V824.602Z" fill="#424242"/>
<path d="M0 835.898H10V847.194H0V835.898Z" fill="#C4C4C4"/>
<path d="M10 835.898H20V847.194H10V835.898Z" fill="#1C120E"/>
<path d="M0 847.194H10V858.49H0V847.194Z" fill="#A6A6A6"/>
<path d="M10 847.194H20V858.49H10V847.194Z" fill="#5C5C5C"/>
<path d="M20 847.194H30V858.49H20V847.194Z" fill="#C4C4C4"/>
<path d="M0 858.49H10V869.786H0V858.49Z" fill="#C4C4C4"/>
<path d="M10 858.49H20V869.786H10V858.49Z" fill="#1C120E"/>
<path d="M0 869.786H10V881.082H0V869.786Z" fill="#C4C4C4"/>
<path d="M10 869.786H20V881.082H10V869.786Z" fill="#1C120E"/>
<path d="M0 881.082H10V892.378H0V881.082Z" fill="#A6A6A6"/>
<path d="M10 881.082H20V892.378H10V881.082Z" fill="#5C5C5C"/>
<path d="M20 881.082H30V892.378H20V881.082Z" fill="#C4C4C4"/>
<path d="M0 892.378H10V903.673H0V892.378Z" fill="#C4C4C4"/>
<path d="M10 892.378H20V903.673H10V892.378Z" fill="#1C120E"/>
<path d="M0 903.673H10V914.969H0V903.673Z" fill="#A6A6A6"/>
<path d="M10 903.673H20V914.969H10V903.673Z" fill="#5C5C5C"/>
<path d="M20 903.673H30V914.969H20V903.673Z" fill="#C4C4C4"/>
<path d="M0 914.969H10V926.265H0V914.969Z" fill="#A6A6A6"/>
<path d="M10 914.969H20V926.265H10V914.969Z" fill="#5C5C5C"/>
<path d="M20 914.969H30V926.265H20V914.969Z" fill="#C4C4C4"/>
<path d="M0 926.265H10V937.561H0V926.265Z" fill="#A6A6A6"/>
<path d="M10 926.265H20V937.561H10V926.265Z" fill="#5C5C5C"/>
<path d="M20 926.265H30V937.561H20V926.265Z" fill="#C4C4C4"/>
<path d="M0 937.561H10V948.857H0V937.561Z" fill="#ECECEC"/>
<path d="M10 937.561H20V948.857H10V937.561Z" fill="#1C120E"/>
<path d="M20 937.561H30V948.857H20V937.561Z" fill="#747474"/>
<path d="M0 948.857H10V960.153H0V948.857Z" fill="#A6A6A6"/>
<path d="M10 948.857H20V960.153H10V948.857Z" fill="#5C5C5C"/>
<path d="M20 948.857H30V960.153H20V948.857Z" fill="#C4C4C4"/>
<path d="M0 960.153H10V971.449H0V960.153Z" fill="#A6A6A6"/>
<path d="M10 960.153H20V971.449H10V960.153Z" fill="#5C5C5C"/>
<path d="M20 960.153H30V971.449H20V960.153Z" fill="#C4C4C4"/>
<path d="M0 971.449H10V982.745H0V971.449Z" fill="#ECECEC"/>
<path d="M10 971.449H20V982.745H10V971.449Z" fill="#1C120E"/>
<path d="M20 971.449H30V982.745H20V971.449Z" fill="#747474"/>
<path d="M0 982.745H10V994.041H0V982.745Z" fill="#A6A6A6"/>
<path d="M10 982.745H20V994.041H10V982.745Z" fill="#5C5C5C"/>
<path d="M20 982.745H30V994.041H20V982.745Z" fill="#C4C4C4"/>
<path d="M0 994.041H10V1005.34H0V994.041Z" fill="#ECECEC"/>
<path d="M10 994.041H20V1005.34H10V994.041Z" fill="#1C120E"/>
<path d="M20 994.041H30V1005.34H20V994.041Z" fill="#747474"/>
<path d="M0 1005.34H10V1016.63H0V1005.34Z" fill="#A6A6A6"/>
<path d="M10 1005.34H20V1016.63H10V1005.34Z" fill="#5C5C5C"/>
<path d="M20 1005.34H30V1016.63H20V1005.34Z" fill="#C4C4C4"/>
<path d="M0 1016.63H10V1027.93H0V1016.63Z" fill="#ECECEC"/>
<path d="M10 1016.63H20V1027.93H10V1016.63Z" fill="#1C120E"/>
<path d="M20 1016.63H30V1027.93H20V1016.63Z" fill="#747474"/>
<path d="M0 1027.93H10V1039.22H0V1027.93Z" fill="#ECECEC"/>
<path d="M10 1027.93H20V1039.22H10V1027.93Z" fill="#1C120E"/>
<path d="M20 1027.93H30V1039.22H20V1027.93Z" fill="#747474"/>
<path d="M0 1039.22H10V1050.52H0V1039.22Z" fill="#ECECEC"/>
<path d="M10 1039.22H20V1050.52H10V1039.22Z" fill="#1C120E"/>
<path d="M20 1039.22H30V1050.52H20V1039.22Z" fill="#747474"/>
<path d="M0 1050.52H10V1061.82H0V1050.52Z" fill="#ECECEC"/>
<path d="M10 1050.52H20V1061.82H10V1050.52Z" fill="#1C120E"/>
<path d="M20 1050.52H30V1061.82H20V1050.52Z" fill="#747474"/>
<path d="M0 1061.82H10V1073.11H0V1061.82Z" fill="#A6A6A6"/>
<path d="M10 1061.82H20V1073.11H10V1061.82Z" fill="#5C5C5C"/>
<path d="M20 1061.82H30V1073.11H20V1061.82Z" fill="#C4C4C4"/>
<path d="M0 1073.11H10V1084.41H0V1073.11Z" fill="#ECECEC"/>
<path d="M10 1073.11H20V1084.41H10V1073.11Z" fill="#1C120E"/>
<path d="M20 1073.11H30V1084.41H20V1073.11Z" fill="#747474"/>
<path d="M0 1084.41H10V1095.7H0V1084.41Z" fill="#ECECEC"/>
<path d="M10 1084.41H20V1095.7H10V1084.41Z" fill="#1C120E"/>
<path d="M20 1084.41H30V1095.7H20V1084.41Z" fill="#747474"/>
<path d="M0 1095.7H10V1107H0V1095.7Z" fill="#ECECEC"/>
<path d="M10 1095.7H20V1107H10V1095.7Z" fill="#1C120E"/>
<path d="M20 1095.7H30V1107H20V1095.7Z" fill="#747474"/>
<path d="M0 1107H10V1118.3H0V1107Z" fill="#C4C4C4"/>
<path d="M10 1107H20V1118.3H10V1107Z" fill="#1C120E"/>
<path d="M20 1107H30V1118.3H20V1107Z" fill="#747474"/>
<path d="M20 1118.3H10V1129.59H20V1118.3Z" fill="#1C120E"/>
<path d="M10 1118.3H0V1129.59H10V1118.3Z" fill="#C4C4C4"/>
<path d="M0 1129.59H10V1140.89H0V1129.59Z" fill="#1C120E"/>
<path d="M10 1129.59H20V1140.89H10V1129.59Z" fill="#C4C4C4"/>
<path d="M0 1140.89H10V1152.18H0V1140.89Z" fill="#1C120E"/>
<path d="M10 1140.89H20V1152.18H10V1140.89Z" fill="#C4C4C4"/>
<path d="M20 1152.18H10V1163.48H20V1152.18Z" fill="#1C120E"/>
<path d="M10 1152.18H0V1163.48H10V1152.18Z" fill="#C4C4C4"/>
<path d="M0 1163.48H10V1174.78H0V1163.48Z" fill="#1C120E"/>
<path d="M10 1163.48H20V1174.78H10V1163.48Z" fill="#C4C4C4"/>
<path d="M0 1174.78H10V1186.07H0V1174.78Z" fill="#1C120E"/>
<path d="M10 1174.78H20V1186.07H10V1174.78Z" fill="#C4C4C4"/>
<path d="M0 1186.07H10V1197.37H0V1186.07Z" fill="#ECECEC"/>
<path d="M10 1186.07H20V1197.37H10V1186.07Z" fill="#1C120E"/>
<path d="M20 1186.07H30V1197.37H20V1186.07Z" fill="#747474"/>
<path d="M0 1197.37H10V1208.66H0V1197.37Z" fill="#C4C4C4"/>
<path d="M10 1197.37H20V1208.66H10V1197.37Z" fill="#1C120E"/>
<path d="M20 1197.37H30V1208.66H20V1197.37Z" fill="#747474"/>
<path d="M0 1208.66H10V1219.96H0V1208.66Z" fill="#1C120E"/>
<path d="M10 1208.66H20V1219.96H10V1208.66Z" fill="#C4C4C4"/>
<path d="M20 1219.96H10V1231.26H20V1219.96Z" fill="#1C120E"/>
<path d="M10 1219.96H0V1231.26H10V1219.96Z" fill="#C4C4C4"/>
<path d="M0 1231.26H10V1242.55H0V1231.26Z" fill="#1C120E"/>
<path d="M10 1231.26H20V1242.55H10V1231.26Z" fill="#C4C4C4"/>
<path d="M0 1242.55H10V1253.85H0V1242.55Z" fill="#1C120E"/>
<path d="M10 1242.55H20V1253.85H10V1242.55Z" fill="#C4C4C4"/>
<path d="M0 1253.85H10V1265.14H0V1253.85Z" fill="#929292"/>
<path d="M10 1253.85H20V1265.14H10V1253.85Z" fill="#1C120E"/>
<path d="M20 1253.85H30V1265.14H20V1253.85Z" fill="#424242"/>
<path d="M30 1265.14H20V1276.44H30V1265.14Z" fill="#929292"/>
<path d="M20 1265.14H10V1276.44H20V1265.14Z" fill="#1C120E"/>
<path d="M10 1265.14H0V1276.44H10V1265.14Z" fill="#424242"/>
<path d="M0 1276.44H10V1287.73H0V1276.44Z" fill="#929292"/>
<path d="M10 1276.44H20V1287.73H10V1276.44Z" fill="#1C120E"/>
<path d="M20 1276.44H30V1287.73H20V1276.44Z" fill="#424242"/>
<path d="M30 1287.73H20V1299.03H30V1287.73Z" fill="#929292"/>
<path d="M20 1287.73H10V1299.03H20V1287.73Z" fill="#1C120E"/>
<path d="M10 1287.73H0V1299.03H10V1287.73Z" fill="#424242"/>
<path d="M0 1299.03H10V1310.33H0V1299.03Z" fill="#929292"/>
<path d="M10 1299.03H20V1310.33H10V1299.03Z" fill="#1C120E"/>
<path d="M20 1299.03H30V1310.33H20V1299.03Z" fill="#424242"/>
<path d="M0 1310.33H10V1321.62H0V1310.33Z" fill="#929292"/>
<path d="M10 1310.33H20V1321.62H10V1310.33Z" fill="#1C120E"/>
<path d="M20 1310.33H30V1321.62H20V1310.33Z" fill="#424242"/>
<path d="M0 1321.62H10V1332.92H0V1321.62Z" fill="#C4C4C4"/>
<path d="M10 1321.62H20V1332.92H10V1321.62Z" fill="#1C120E"/>
<path d="M0 1332.92H10V1344.21H0V1332.92Z" fill="#C4C4C4"/>
<path d="M10 1332.92H20V1344.21H10V1332.92Z" fill="#1C120E"/>
<path d="M30 1344.21H20V1355.51H30V1344.21Z" fill="#929292"/>
<path d="M20 1344.21H10V1355.51H20V1344.21Z" fill="#1C120E"/>
<path d="M10 1344.21H0V1355.51H10V1344.21Z" fill="#424242"/>
<path d="M0 1355.51H10V1366.81H0V1355.51Z" fill="#C4C4C4"/>
<path d="M10 1355.51H20V1366.81H10V1355.51Z" fill="#1C120E"/>
<path d="M30 1366.81H20V1378.1H30V1366.81Z" fill="#929292"/>
<path d="M20 1366.81H10V1378.1H20V1366.81Z" fill="#1C120E"/>
<path d="M10 1366.81H0V1378.1H10V1366.81Z" fill="#424242"/>
<path d="M0 1378.1H10V1389.4H0V1378.1Z" fill="#C4C4C4"/>
<path d="M10 1378.1H20V1389.4H10V1378.1Z" fill="#1C120E"/>
<path d="M30 1389.4H20V1400.69H30V1389.4Z" fill="#929292"/>
<path d="M20 1389.4H10V1400.69H20V1389.4Z" fill="#1C120E"/>
<path d="M10 1389.4H0V1400.69H10V1389.4Z" fill="#424242"/>
<path d="M0 1400.69H10V1411.99H0V1400.69Z" fill="#C4C4C4"/>
<path d="M10 1400.69H20V1411.99H10V1400.69Z" fill="#1C120E"/>
<path d="M0 1411.99H10V1423.29H0V1411.99Z" fill="#C4C4C4"/>
<path d="M10 1411.99H20V1423.29H10V1411.99Z" fill="#1C120E"/>
<path d="M0 1423.29H10V1434.58H0V1423.29Z" fill="#929292"/>
<path d="M10 1423.29H20V1434.58H10V1423.29Z" fill="#1C120E"/>
<path d="M20 1423.29H30V1434.58H20V1423.29Z" fill="#424242"/>
<path d="M0 1434.58H10V1445.88H0V1434.58Z" fill="#C4C4C4"/>
<path d="M10 1434.58H20V1445.88H10V1434.58Z" fill="#1C120E"/>
<path d="M0 1445.88H10V1457.17H0V1445.88Z" fill="#A6A6A6"/>
<path d="M10 1445.88H20V1457.17H10V1445.88Z" fill="#5C5C5C"/>
<path d="M20 1445.88H30V1457.17H20V1445.88Z" fill="#C4C4C4"/>
<path d="M0 1457.17H10V1468.47H0V1457.17Z" fill="#C4C4C4"/>
<path d="M10 1457.17H20V1468.47H10V1457.17Z" fill="#1C120E"/>
<path d="M0 1468.47H10V1479.77H0V1468.47Z" fill="#C4C4C4"/>
<path d="M10 1468.47H20V1479.77H10V1468.47Z" fill="#1C120E"/>
<path d="M0 1479.77H10V1491.06H0V1479.77Z" fill="#A6A6A6"/>
<path d="M10 1479.77H20V1491.06H10V1479.77Z" fill="#5C5C5C"/>
<path d="M20 1479.77H30V1491.06H20V1479.77Z" fill="#C4C4C4"/>
<path d="M0 1491.06H10V1502.36H0V1491.06Z" fill="#C4C4C4"/>
<path d="M10 1491.06H20V1502.36H10V1491.06Z" fill="#1C120E"/>
<path d="M0 1502.36H10V1513.65H0V1502.36Z" fill="#A6A6A6"/>
<path d="M10 1502.36H20V1513.65H10V1502.36Z" fill="#5C5C5C"/>
<path d="M20 1502.36H30V1513.65H20V1502.36Z" fill="#C4C4C4"/>
<path d="M0 1513.65H10V1524.95H0V1513.65Z" fill="#A6A6A6"/>
<path d="M10 1513.65H20V1524.95H10V1513.65Z" fill="#5C5C5C"/>
<path d="M20 1513.65H30V1524.95H20V1513.65Z" fill="#C4C4C4"/>
<path d="M0 1524.95H10V1536.24H0V1524.95Z" fill="#A6A6A6"/>
<path d="M10 1524.95H20V1536.24H10V1524.95Z" fill="#5C5C5C"/>
<path d="M20 1524.95H30V1536.24H20V1524.95Z" fill="#C4C4C4"/>
<path d="M0 1536.24H10V1547.54H0V1536.24Z" fill="#ECECEC"/>
<path d="M10 1536.24H20V1547.54H10V1536.24Z" fill="#1C120E"/>
<path d="M20 1536.24H30V1547.54H20V1536.24Z" fill="#747474"/>
<path d="M0 1547.54H10V1558.84H0V1547.54Z" fill="#A6A6A6"/>
<path d="M10 1547.54H20V1558.84H10V1547.54Z" fill="#5C5C5C"/>
<path d="M20 1547.54H30V1558.84H20V1547.54Z" fill="#C4C4C4"/>
<path d="M0 1558.84H10V1570.13H0V1558.84Z" fill="#A6A6A6"/>
<path d="M10 1558.84H20V1570.13H10V1558.84Z" fill="#5C5C5C"/>
<path d="M20 1558.84H30V1570.13H20V1558.84Z" fill="#C4C4C4"/>
<path d="M0 1570.13H10V1581.43H0V1570.13Z" fill="#ECECEC"/>
<path d="M10 1570.13H20V1581.43H10V1570.13Z" fill="#1C120E"/>
<path d="M20 1570.13H30V1581.43H20V1570.13Z" fill="#747474"/>
<path d="M0 1581.43H10V1592.72H0V1581.43Z" fill="#A6A6A6"/>
<path d="M10 1581.43H20V1592.72H10V1581.43Z" fill="#5C5C5C"/>
<path d="M20 1581.43H30V1592.72H20V1581.43Z" fill="#C4C4C4"/>
<path d="M0 1592.72H10V1604.02H0V1592.72Z" fill="#ECECEC"/>
<path d="M10 1592.72H20V1604.02H10V1592.72Z" fill="#1C120E"/>
<path d="M20 1592.72H30V1604.02H20V1592.72Z" fill="#747474"/>
<path d="M0 1604.02H10V1615.32H0V1604.02Z" fill="#A6A6A6"/>
<path d="M10 1604.02H20V1615.32H10V1604.02Z" fill="#5C5C5C"/>
<path d="M20 1604.02H30V1615.32H20V1604.02Z" fill="#C4C4C4"/>
<path d="M0 1615.32H10V1626.61H0V1615.32Z" fill="#ECECEC"/>
<path d="M10 1615.32H20V1626.61H10V1615.32Z" fill="#1C120E"/>
<path d="M20 1615.32H30V1626.61H20V1615.32Z" fill="#747474"/>
<path d="M0 1626.61H10V1637.91H0V1626.61Z" fill="#ECECEC"/>
<path d="M10 1626.61H20V1637.91H10V1626.61Z" fill="#1C120E"/>
<path d="M20 1626.61H30V1637.91H20V1626.61Z" fill="#747474"/>
<path d="M0 1637.91H10V1649.2H0V1637.91Z" fill="#ECECEC"/>
<path d="M10 1637.91H20V1649.2H10V1637.91Z" fill="#1C120E"/>
<path d="M20 1637.91H30V1649.2H20V1637.91Z" fill="#747474"/>
<path d="M0 1649.2H10V1660.5H0V1649.2Z" fill="#ECECEC"/>
<path d="M10 1649.2H20V1660.5H10V1649.2Z" fill="#1C120E"/>
<path d="M20 1649.2H30V1660.5H20V1649.2Z" fill="#747474"/>
<path d="M0 1660.5H10V1671.8H0V1660.5Z" fill="#A6A6A6"/>
<path d="M10 1660.5H20V1671.8H10V1660.5Z" fill="#5C5C5C"/>
<path d="M20 1660.5H30V1671.8H20V1660.5Z" fill="#C4C4C4"/>
<path d="M0 1671.8H10V1683.09H0V1671.8Z" fill="#ECECEC"/>
<path d="M10 1671.8H20V1683.09H10V1671.8Z" fill="#1C120E"/>
<path d="M20 1671.8H30V1683.09H20V1671.8Z" fill="#747474"/>
<path d="M0 1683.09H10V1694.39H0V1683.09Z" fill="#ECECEC"/>
<path d="M10 1683.09H20V1694.39H10V1683.09Z" fill="#1C120E"/>
<path d="M20 1683.09H30V1694.39H20V1683.09Z" fill="#747474"/>
<path d="M0 1694.39H10V1705.68H0V1694.39Z" fill="#ECECEC"/>
<path d="M10 1694.39H20V1705.68H10V1694.39Z" fill="#1C120E"/>
<path d="M20 1694.39H30V1705.68H20V1694.39Z" fill="#747474"/>
</svg>
